<svg xmlns="http://www.w3.org/2000/svg" viewBox="0 0 3000 2130.6" role="img" aria-label="Accurate iowa track layout">
  <defs>
    <linearGradient id="track" x1="0" y1="0" x2="0" y2="1">
      <stop offset="0" stop-color="#ffe9a6"/>
      <stop offset=".46" stop-color="#626873"/>
      <stop offset="1" stop-color="#aa7721"/>
    </linearGradient>
    <filter id="glow" x="-30%" y="-30%" width="160%" height="170%">
      <feGaussianBlur stdDeviation="12" result="blur"/>
      <feColorMatrix in="blur" type="matrix" values="1 0 0 0 0  0 1 0 0 0  0 0 1 0 0  0 0 0 .55 0"/>
    </filter>
  </defs>
  <g opacity=".42" filter="url(#glow)">
    <path d="M2844.1,561.2c-35.1-84.4-85.6-160.4-149.9-226-79.7-81.2-178.7-143.5-278.9-175.6-105.6-33.9-221.4-51.9-364.4-56.8-35.8-1.2-74.9-1.7-119.6-1.5-60.6.3-122.2.3-181.9.3-16.1,0-32.3,0-48.4,0h-397.1c-16.2,0-32.4,0-48.6,0-59.8,0-121.7,0-182.4-.3-44.8-.2-84,.2-120,1.5-143.4,4.9-259.5,23-365.5,56.8-100.4,32.1-199.8,94.5-279.7,175.6-64.6,65.6-115.2,141.6-150.4,226-35.8,85.8-54.8,180.8-54.8,274.6s21.8,201,63.1,292.8c41.3,91.9,102.6,175.4,177.2,241.5,126.9,112.4,290.2,172.8,418.4,212.9,164.1,51.3,344.1,84.3,535.2,98,67.3,4.8,136.8,7.3,206.4,7.3s138.6-2.5,205.7-7.3c190.4-13.8,370-46.8,533.5-98.1,127.8-40.1,290.6-100.5,417.1-212.9,74.4-66.1,135.5-149.6,176.7-241.5,41.2-91.8,62.9-193,62.9-292.7s-18.9-188.8-54.6-274.5h0ZM238,594.8c30.5-73,76.1-141.5,132.1-198.3,70.1-71.2,156.8-125.8,244-153.7,98.1-31.3,206.7-48.1,341.9-52.7,29-1,60.2-1.5,95.1-1.5s14.1,0,21.4,0c61,.3,123,.3,182.9.3,16.2,0,32.4,0,48.6,0h397.1c16.1,0,32.3,0,48.4,0,59.7,0,121.5,0,182.4-.3,43.5-.2,81.5.2,116.1,1.4,57.2,2,114.3,6.2,171,14.4,78,11.2,143.1,38.2,208.7,81.5,63,41.5,119.6,93,165.3,153.1,103.9,136.5,134.1,311.3,105.1,478.6-6.6,38.1-17.5,75-31.3,111.2-24.5,64-64.6,124.9-116.6,170-14.7,12.7-30.5,24.2-47.4,33.8-32.4,18.4-68.5,30.1-105.3,35.8-20.6,3.2-41.2,4-62,4H585.2c-59.9,0-118.6-15.9-170.2-46.2-46.4-27.2-86.1-64.6-119.5-106.5-15.4-19.3-29.5-39.7-42.4-60.8-18.1-29.6-35.6-60.7-46.8-93.9-12.1-35.8-15.3-73.7-16.1-111.3-.1-6-.2-12-.2-18.1,0-82.4,16.6-165.7,48-240.9h0ZM2756.1,1092.7c-36.2,80.7-89.8,153.9-155,211.9-114.1,101.4-265.8,157.4-385.2,194.8-157.1,49.3-330,81-513.7,94.3-65,4.7-132.1,7.1-199.4,7.1s-134.8-2.4-200.1-7.1c-184.3-13.3-357.7-45-515.4-94.3-101-31.6-225-76.3-330.1-150.4,13.2,3.9,32,7.3,57.8,7.3h14.3c9.3,0,18.6,0,27.8,0,13.4,0,26.8,0,40.2,0,17.2,0,34.3,0,51.5,0,20.5,0,41,0,61.6,0,23.5,0,47,0,70.5,0,26.1,0,52.2,0,78.2,0,28.3,0,56.5,0,84.8.1,30.1,0,60.1,0,90.2.1,31.5,0,62.9,0,94.4.1,32.5,0,65,0,97.5.1,33.1,0,66.2,0,99.4.1,33.4,0,66.7,0,100.1.1,33.2,0,66.4,0,99.7.1,32.7,0,65.4,0,98.1.1,31.8,0,63.5,0,95.3.1,30.4,0,60.9,0,91.3.1,28.7,0,57.5,0,86.2.1,26.6,0,53.3,0,79.9.1,24.2,0,48.3,0,72.5,0,21.3,0,42.6,0,63.8,0,18,0,36,0,54,0,14.4,0,28.7,0,43.1,0,10.3,0,20.6,0,30.9,0,59.4,0,119.6-2.4,177.6-16.4,52.2-12.6,102.6-33.3,147.6-62.6,46.6-30.3,86.2-70.6,116.9-116.9,62.1-93.6,88.9-204,94.3-315.1,1.4-29.7,1.3-59.4,0-89.1-.8-17.5-1.9-35.1-3.2-52.7-3.1-40.1-7.6-80.3-13.9-120.1,1.3,3,2.6,6.1,3.9,9.1,31.3,75.2,47.9,158.6,47.9,241s-19.1,176.3-55.3,257h0Z" transform="translate(0 18)" fill="#020307" fill-rule="evenodd" opacity=".9"/>
    <path d="M2844.1,561.2c-35.1-84.4-85.6-160.4-149.9-226-79.7-81.2-178.7-143.5-278.9-175.6-105.6-33.9-221.4-51.9-364.4-56.8-35.8-1.2-74.9-1.7-119.6-1.5-60.6.3-122.2.3-181.9.3-16.1,0-32.3,0-48.4,0h-397.1c-16.2,0-32.4,0-48.6,0-59.8,0-121.7,0-182.4-.3-44.8-.2-84,.2-120,1.5-143.4,4.9-259.5,23-365.5,56.8-100.4,32.1-199.8,94.5-279.7,175.6-64.6,65.6-115.2,141.6-150.4,226-35.8,85.8-54.8,180.8-54.8,274.6s21.8,201,63.1,292.8c41.3,91.9,102.6,175.4,177.2,241.5,126.9,112.4,290.2,172.8,418.4,212.9,164.1,51.3,344.1,84.3,535.2,98,67.3,4.8,136.8,7.3,206.4,7.3s138.6-2.5,205.7-7.3c190.4-13.8,370-46.8,533.5-98.1,127.8-40.1,290.6-100.5,417.1-212.9,74.4-66.1,135.5-149.6,176.7-241.5,41.2-91.8,62.9-193,62.9-292.7s-18.9-188.8-54.6-274.5h0ZM238,594.8c30.5-73,76.1-141.5,132.1-198.3,70.1-71.2,156.8-125.8,244-153.7,98.1-31.3,206.7-48.1,341.9-52.7,29-1,60.2-1.5,95.1-1.5s14.1,0,21.4,0c61,.3,123,.3,182.9.3,16.2,0,32.4,0,48.6,0h397.1c16.1,0,32.3,0,48.4,0,59.7,0,121.5,0,182.4-.3,43.5-.2,81.5.2,116.1,1.4,57.2,2,114.3,6.2,171,14.4,78,11.2,143.1,38.2,208.7,81.5,63,41.5,119.6,93,165.3,153.1,103.9,136.5,134.1,311.3,105.1,478.6-6.6,38.1-17.5,75-31.3,111.2-24.5,64-64.6,124.9-116.6,170-14.7,12.7-30.5,24.2-47.4,33.8-32.4,18.4-68.5,30.1-105.3,35.8-20.6,3.2-41.2,4-62,4H585.2c-59.9,0-118.6-15.9-170.2-46.2-46.4-27.2-86.1-64.6-119.5-106.5-15.4-19.3-29.5-39.7-42.4-60.8-18.1-29.6-35.6-60.7-46.8-93.9-12.1-35.8-15.3-73.7-16.1-111.3-.1-6-.2-12-.2-18.1,0-82.4,16.6-165.7,48-240.9h0ZM2756.1,1092.7c-36.2,80.7-89.8,153.9-155,211.9-114.1,101.4-265.8,157.4-385.2,194.8-157.1,49.3-330,81-513.7,94.3-65,4.7-132.1,7.1-199.4,7.1s-134.8-2.4-200.1-7.1c-184.3-13.3-357.7-45-515.4-94.3-101-31.6-225-76.3-330.1-150.4,13.2,3.9,32,7.3,57.8,7.3h14.3c9.3,0,18.6,0,27.8,0,13.4,0,26.8,0,40.2,0,17.2,0,34.3,0,51.5,0,20.5,0,41,0,61.6,0,23.5,0,47,0,70.5,0,26.1,0,52.2,0,78.2,0,28.3,0,56.5,0,84.8.1,30.1,0,60.1,0,90.2.1,31.5,0,62.9,0,94.4.1,32.5,0,65,0,97.5.1,33.1,0,66.2,0,99.4.1,33.4,0,66.7,0,100.1.1,33.2,0,66.4,0,99.7.1,32.7,0,65.4,0,98.1.1,31.8,0,63.5,0,95.3.1,30.4,0,60.9,0,91.3.1,28.7,0,57.5,0,86.2.1,26.6,0,53.3,0,79.9.1,24.2,0,48.3,0,72.5,0,21.3,0,42.6,0,63.8,0,18,0,36,0,54,0,14.4,0,28.7,0,43.1,0,10.3,0,20.6,0,30.9,0,59.4,0,119.6-2.4,177.6-16.4,52.2-12.6,102.6-33.3,147.6-62.6,46.6-30.3,86.2-70.6,116.9-116.9,62.1-93.6,88.9-204,94.3-315.1,1.4-29.7,1.3-59.4,0-89.1-.8-17.5-1.9-35.1-3.2-52.7-3.1-40.1-7.6-80.3-13.9-120.1,1.3,3,2.6,6.1,3.9,9.1,31.3,75.2,47.9,158.6,47.9,241s-19.1,176.3-55.3,257h0Z" fill="url(#track)" fill-rule="evenodd" stroke="rgba(255,255,255,.24)" stroke-width="8"/>
    <path d="M2844.1,561.2c-35.1-84.4-85.6-160.4-149.9-226-79.7-81.2-178.7-143.5-278.9-175.6-105.6-33.9-221.4-51.9-364.4-56.8-35.8-1.2-74.9-1.7-119.6-1.5-60.6.3-122.2.3-181.9.3-16.1,0-32.3,0-48.4,0h-397.1c-16.2,0-32.4,0-48.6,0-59.8,0-121.7,0-182.4-.3-44.8-.2-84,.2-120,1.5-143.4,4.9-259.5,23-365.5,56.8-100.4,32.1-199.8,94.5-279.7,175.6-64.6,65.6-115.2,141.6-150.4,226-35.8,85.8-54.8,180.8-54.8,274.6s21.8,201,63.1,292.8c41.3,91.9,102.6,175.4,177.2,241.5,126.9,112.4,290.2,172.8,418.4,212.9,164.1,51.3,344.1,84.3,535.2,98,67.3,4.8,136.8,7.3,206.4,7.3s138.6-2.5,205.7-7.3c190.4-13.8,370-46.8,533.5-98.1,127.8-40.1,290.6-100.5,417.1-212.9,74.4-66.1,135.5-149.6,176.7-241.5,41.2-91.8,62.9-193,62.9-292.7s-18.9-188.8-54.6-274.5h0ZM238,594.8c30.5-73,76.1-141.5,132.1-198.3,70.1-71.2,156.8-125.8,244-153.7,98.1-31.3,206.7-48.1,341.9-52.7,29-1,60.2-1.5,95.1-1.5s14.1,0,21.4,0c61,.3,123,.3,182.9.3,16.2,0,32.4,0,48.6,0h397.1c16.1,0,32.3,0,48.4,0,59.7,0,121.5,0,182.4-.3,43.5-.2,81.5.2,116.1,1.4,57.2,2,114.3,6.2,171,14.4,78,11.2,143.1,38.2,208.7,81.5,63,41.5,119.6,93,165.3,153.1,103.9,136.5,134.1,311.3,105.1,478.6-6.6,38.1-17.5,75-31.3,111.2-24.5,64-64.6,124.9-116.6,170-14.7,12.7-30.5,24.2-47.4,33.8-32.4,18.4-68.5,30.1-105.3,35.8-20.6,3.2-41.2,4-62,4H585.2c-59.9,0-118.6-15.9-170.2-46.2-46.4-27.2-86.1-64.6-119.5-106.5-15.4-19.3-29.5-39.7-42.4-60.8-18.1-29.6-35.6-60.7-46.8-93.9-12.1-35.8-15.3-73.7-16.1-111.3-.1-6-.2-12-.2-18.1,0-82.4,16.6-165.7,48-240.9h0ZM2756.1,1092.7c-36.2,80.7-89.8,153.9-155,211.9-114.1,101.4-265.8,157.4-385.2,194.8-157.1,49.3-330,81-513.7,94.3-65,4.7-132.1,7.1-199.4,7.1s-134.8-2.4-200.1-7.1c-184.3-13.3-357.7-45-515.4-94.3-101-31.6-225-76.3-330.1-150.4,13.2,3.9,32,7.3,57.8,7.3h14.3c9.3,0,18.6,0,27.8,0,13.4,0,26.8,0,40.2,0,17.2,0,34.3,0,51.5,0,20.5,0,41,0,61.6,0,23.5,0,47,0,70.5,0,26.1,0,52.2,0,78.2,0,28.3,0,56.5,0,84.8.1,30.1,0,60.1,0,90.2.1,31.5,0,62.9,0,94.4.1,32.5,0,65,0,97.5.1,33.1,0,66.2,0,99.4.1,33.4,0,66.7,0,100.1.1,33.2,0,66.4,0,99.7.1,32.7,0,65.4,0,98.1.1,31.8,0,63.5,0,95.3.1,30.4,0,60.9,0,91.3.1,28.7,0,57.5,0,86.2.1,26.6,0,53.3,0,79.9.1,24.2,0,48.3,0,72.5,0,21.3,0,42.6,0,63.8,0,18,0,36,0,54,0,14.4,0,28.7,0,43.1,0,10.3,0,20.6,0,30.9,0,59.4,0,119.6-2.4,177.6-16.4,52.2-12.6,102.6-33.3,147.6-62.6,46.6-30.3,86.2-70.6,116.9-116.9,62.1-93.6,88.9-204,94.3-315.1,1.4-29.7,1.3-59.4,0-89.1-.8-17.5-1.9-35.1-3.2-52.7-3.1-40.1-7.6-80.3-13.9-120.1,1.3,3,2.6,6.1,3.9,9.1,31.3,75.2,47.9,158.6,47.9,241s-19.1,176.3-55.3,257h0Z" fill="none" fill-rule="evenodd" stroke="rgba(255,255,255,.38)" stroke-width="3"/></g>
  <g>
    <path d="M2844.1,561.2c-35.1-84.4-85.6-160.4-149.9-226-79.7-81.2-178.7-143.5-278.9-175.6-105.6-33.9-221.4-51.9-364.4-56.8-35.8-1.2-74.9-1.7-119.6-1.5-60.6.3-122.2.3-181.9.3-16.1,0-32.3,0-48.4,0h-397.1c-16.2,0-32.4,0-48.6,0-59.8,0-121.7,0-182.4-.3-44.8-.2-84,.2-120,1.5-143.4,4.9-259.5,23-365.5,56.8-100.4,32.1-199.8,94.5-279.7,175.6-64.6,65.6-115.2,141.6-150.4,226-35.8,85.8-54.8,180.8-54.8,274.6s21.8,201,63.1,292.8c41.3,91.9,102.6,175.4,177.2,241.5,126.9,112.4,290.2,172.8,418.4,212.9,164.1,51.3,344.1,84.3,535.2,98,67.3,4.8,136.8,7.3,206.4,7.3s138.6-2.5,205.7-7.3c190.4-13.8,370-46.8,533.5-98.1,127.8-40.1,290.6-100.5,417.1-212.9,74.4-66.1,135.5-149.6,176.7-241.5,41.2-91.8,62.9-193,62.9-292.7s-18.9-188.8-54.6-274.5h0ZM238,594.8c30.5-73,76.1-141.5,132.1-198.3,70.1-71.2,156.8-125.8,244-153.7,98.1-31.3,206.7-48.1,341.9-52.7,29-1,60.2-1.5,95.1-1.5s14.1,0,21.4,0c61,.3,123,.3,182.9.3,16.2,0,32.4,0,48.6,0h397.1c16.1,0,32.3,0,48.4,0,59.7,0,121.5,0,182.4-.3,43.5-.2,81.5.2,116.1,1.4,57.2,2,114.3,6.2,171,14.4,78,11.2,143.1,38.2,208.7,81.5,63,41.5,119.6,93,165.3,153.1,103.9,136.5,134.1,311.3,105.1,478.6-6.6,38.1-17.5,75-31.3,111.2-24.5,64-64.6,124.9-116.6,170-14.7,12.7-30.5,24.2-47.4,33.8-32.4,18.4-68.5,30.1-105.3,35.8-20.6,3.2-41.2,4-62,4H585.2c-59.9,0-118.6-15.9-170.2-46.2-46.4-27.2-86.1-64.6-119.5-106.5-15.4-19.3-29.5-39.7-42.4-60.8-18.1-29.6-35.6-60.7-46.8-93.9-12.1-35.8-15.3-73.7-16.1-111.3-.1-6-.2-12-.2-18.1,0-82.4,16.6-165.7,48-240.9h0ZM2756.1,1092.7c-36.2,80.7-89.8,153.9-155,211.9-114.1,101.4-265.8,157.4-385.2,194.8-157.1,49.3-330,81-513.7,94.3-65,4.7-132.1,7.1-199.4,7.1s-134.8-2.4-200.1-7.1c-184.3-13.3-357.7-45-515.4-94.3-101-31.6-225-76.3-330.1-150.4,13.2,3.9,32,7.3,57.8,7.3h14.3c9.3,0,18.6,0,27.8,0,13.4,0,26.8,0,40.2,0,17.2,0,34.3,0,51.5,0,20.5,0,41,0,61.6,0,23.5,0,47,0,70.5,0,26.1,0,52.2,0,78.2,0,28.3,0,56.5,0,84.8.1,30.1,0,60.1,0,90.2.1,31.5,0,62.9,0,94.4.1,32.5,0,65,0,97.5.1,33.1,0,66.2,0,99.4.1,33.4,0,66.7,0,100.1.1,33.2,0,66.4,0,99.7.1,32.7,0,65.4,0,98.1.1,31.8,0,63.5,0,95.3.1,30.4,0,60.9,0,91.3.1,28.7,0,57.5,0,86.2.1,26.6,0,53.3,0,79.9.1,24.2,0,48.3,0,72.5,0,21.3,0,42.6,0,63.8,0,18,0,36,0,54,0,14.4,0,28.7,0,43.1,0,10.3,0,20.6,0,30.9,0,59.4,0,119.6-2.4,177.6-16.4,52.2-12.6,102.6-33.3,147.6-62.6,46.6-30.3,86.2-70.6,116.9-116.9,62.1-93.6,88.9-204,94.3-315.1,1.4-29.7,1.3-59.4,0-89.1-.8-17.5-1.9-35.1-3.2-52.7-3.1-40.1-7.6-80.3-13.9-120.1,1.3,3,2.6,6.1,3.9,9.1,31.3,75.2,47.9,158.6,47.9,241s-19.1,176.3-55.3,257h0Z" transform="translate(0 18)" fill="#020307" fill-rule="evenodd" opacity=".9"/>
    <path d="M2844.1,561.2c-35.1-84.4-85.6-160.4-149.9-226-79.7-81.2-178.7-143.5-278.9-175.6-105.6-33.9-221.4-51.9-364.4-56.8-35.8-1.2-74.9-1.7-119.6-1.5-60.6.3-122.2.3-181.9.3-16.1,0-32.3,0-48.4,0h-397.1c-16.2,0-32.4,0-48.6,0-59.8,0-121.7,0-182.4-.3-44.8-.2-84,.2-120,1.5-143.4,4.9-259.5,23-365.5,56.8-100.4,32.1-199.8,94.5-279.7,175.6-64.6,65.6-115.2,141.6-150.4,226-35.8,85.8-54.8,180.8-54.8,274.6s21.8,201,63.1,292.8c41.3,91.9,102.6,175.4,177.2,241.5,126.9,112.4,290.2,172.8,418.4,212.9,164.1,51.3,344.1,84.3,535.2,98,67.3,4.8,136.8,7.3,206.4,7.3s138.6-2.5,205.7-7.3c190.4-13.8,370-46.8,533.5-98.1,127.8-40.1,290.6-100.5,417.1-212.9,74.4-66.1,135.5-149.6,176.7-241.5,41.2-91.8,62.9-193,62.9-292.7s-18.9-188.8-54.6-274.5h0ZM238,594.8c30.5-73,76.1-141.5,132.1-198.3,70.1-71.2,156.8-125.8,244-153.7,98.1-31.3,206.7-48.1,341.9-52.7,29-1,60.2-1.5,95.1-1.5s14.1,0,21.4,0c61,.3,123,.3,182.9.3,16.2,0,32.4,0,48.6,0h397.1c16.1,0,32.3,0,48.4,0,59.7,0,121.5,0,182.4-.3,43.5-.2,81.5.2,116.1,1.4,57.2,2,114.3,6.2,171,14.4,78,11.2,143.1,38.2,208.7,81.5,63,41.5,119.6,93,165.3,153.1,103.9,136.5,134.1,311.3,105.1,478.6-6.6,38.1-17.5,75-31.3,111.2-24.5,64-64.6,124.9-116.6,170-14.7,12.7-30.5,24.2-47.4,33.8-32.4,18.4-68.5,30.1-105.3,35.8-20.6,3.2-41.2,4-62,4H585.2c-59.9,0-118.6-15.9-170.2-46.2-46.4-27.2-86.1-64.6-119.5-106.5-15.4-19.3-29.5-39.7-42.4-60.8-18.1-29.6-35.6-60.7-46.8-93.9-12.1-35.8-15.3-73.7-16.1-111.3-.1-6-.2-12-.2-18.1,0-82.4,16.6-165.7,48-240.9h0ZM2756.1,1092.7c-36.2,80.7-89.8,153.9-155,211.9-114.1,101.4-265.8,157.4-385.2,194.8-157.1,49.3-330,81-513.7,94.3-65,4.7-132.1,7.1-199.4,7.1s-134.8-2.4-200.1-7.1c-184.3-13.3-357.7-45-515.4-94.3-101-31.6-225-76.3-330.1-150.4,13.2,3.9,32,7.3,57.8,7.3h14.3c9.3,0,18.6,0,27.8,0,13.4,0,26.8,0,40.2,0,17.2,0,34.3,0,51.5,0,20.5,0,41,0,61.6,0,23.5,0,47,0,70.5,0,26.1,0,52.2,0,78.2,0,28.3,0,56.5,0,84.8.1,30.1,0,60.1,0,90.2.1,31.5,0,62.9,0,94.4.1,32.5,0,65,0,97.5.1,33.1,0,66.2,0,99.4.1,33.4,0,66.7,0,100.1.1,33.2,0,66.4,0,99.7.1,32.7,0,65.4,0,98.1.1,31.8,0,63.5,0,95.3.1,30.4,0,60.9,0,91.3.1,28.7,0,57.5,0,86.2.1,26.6,0,53.3,0,79.9.1,24.2,0,48.3,0,72.5,0,21.3,0,42.6,0,63.8,0,18,0,36,0,54,0,14.4,0,28.7,0,43.1,0,10.3,0,20.6,0,30.9,0,59.4,0,119.6-2.4,177.6-16.4,52.2-12.6,102.6-33.3,147.6-62.6,46.6-30.3,86.2-70.6,116.9-116.9,62.1-93.6,88.9-204,94.3-315.1,1.4-29.7,1.3-59.4,0-89.1-.8-17.5-1.9-35.1-3.2-52.7-3.1-40.1-7.6-80.3-13.9-120.1,1.3,3,2.6,6.1,3.9,9.1,31.3,75.2,47.9,158.6,47.9,241s-19.1,176.3-55.3,257h0Z" fill="url(#track)" fill-rule="evenodd" stroke="rgba(255,255,255,.24)" stroke-width="8"/>
    <path d="M2844.1,561.2c-35.1-84.4-85.6-160.4-149.9-226-79.7-81.2-178.7-143.5-278.9-175.6-105.6-33.9-221.4-51.9-364.4-56.8-35.8-1.2-74.9-1.7-119.6-1.5-60.6.3-122.2.3-181.9.3-16.1,0-32.3,0-48.4,0h-397.1c-16.2,0-32.4,0-48.6,0-59.8,0-121.7,0-182.4-.3-44.8-.2-84,.2-120,1.5-143.4,4.9-259.5,23-365.5,56.8-100.4,32.1-199.8,94.5-279.7,175.6-64.6,65.6-115.2,141.6-150.4,226-35.8,85.8-54.8,180.8-54.8,274.6s21.8,201,63.1,292.8c41.3,91.9,102.6,175.4,177.2,241.5,126.9,112.4,290.2,172.8,418.4,212.9,164.1,51.3,344.1,84.3,535.2,98,67.3,4.8,136.8,7.3,206.4,7.3s138.6-2.5,205.7-7.3c190.4-13.8,370-46.8,533.5-98.1,127.8-40.1,290.6-100.5,417.1-212.9,74.4-66.1,135.5-149.6,176.7-241.5,41.2-91.8,62.9-193,62.9-292.7s-18.9-188.8-54.6-274.5h0ZM238,594.8c30.5-73,76.1-141.5,132.1-198.3,70.1-71.2,156.8-125.8,244-153.7,98.1-31.3,206.7-48.1,341.9-52.7,29-1,60.2-1.5,95.1-1.5s14.1,0,21.4,0c61,.3,123,.3,182.9.3,16.2,0,32.4,0,48.6,0h397.1c16.1,0,32.3,0,48.4,0,59.7,0,121.5,0,182.4-.3,43.5-.2,81.5.2,116.1,1.4,57.2,2,114.3,6.2,171,14.4,78,11.2,143.1,38.2,208.7,81.5,63,41.5,119.6,93,165.3,153.1,103.9,136.5,134.1,311.3,105.1,478.6-6.6,38.1-17.5,75-31.3,111.2-24.5,64-64.6,124.9-116.6,170-14.7,12.7-30.5,24.2-47.4,33.8-32.4,18.4-68.5,30.1-105.3,35.8-20.6,3.2-41.2,4-62,4H585.2c-59.9,0-118.6-15.9-170.2-46.2-46.4-27.2-86.1-64.6-119.5-106.5-15.4-19.3-29.5-39.7-42.4-60.8-18.1-29.6-35.6-60.7-46.8-93.9-12.1-35.8-15.3-73.7-16.1-111.3-.1-6-.2-12-.2-18.1,0-82.4,16.6-165.7,48-240.9h0ZM2756.1,1092.7c-36.2,80.7-89.8,153.9-155,211.9-114.1,101.4-265.8,157.4-385.2,194.8-157.1,49.3-330,81-513.7,94.3-65,4.7-132.1,7.1-199.4,7.1s-134.8-2.4-200.1-7.1c-184.3-13.3-357.7-45-515.4-94.3-101-31.6-225-76.3-330.1-150.4,13.2,3.9,32,7.3,57.8,7.3h14.3c9.3,0,18.6,0,27.8,0,13.4,0,26.8,0,40.2,0,17.2,0,34.3,0,51.5,0,20.5,0,41,0,61.6,0,23.5,0,47,0,70.5,0,26.1,0,52.2,0,78.2,0,28.3,0,56.5,0,84.8.1,30.1,0,60.1,0,90.2.1,31.5,0,62.9,0,94.4.1,32.5,0,65,0,97.5.1,33.1,0,66.2,0,99.4.1,33.4,0,66.7,0,100.1.1,33.2,0,66.4,0,99.7.1,32.7,0,65.4,0,98.1.1,31.8,0,63.5,0,95.3.1,30.4,0,60.9,0,91.3.1,28.7,0,57.5,0,86.2.1,26.6,0,53.3,0,79.9.1,24.2,0,48.3,0,72.5,0,21.3,0,42.6,0,63.8,0,18,0,36,0,54,0,14.4,0,28.7,0,43.1,0,10.3,0,20.6,0,30.9,0,59.4,0,119.6-2.4,177.6-16.4,52.2-12.6,102.6-33.3,147.6-62.6,46.6-30.3,86.2-70.6,116.9-116.9,62.1-93.6,88.9-204,94.3-315.1,1.4-29.7,1.3-59.4,0-89.1-.8-17.5-1.9-35.1-3.2-52.7-3.1-40.1-7.6-80.3-13.9-120.1,1.3,3,2.6,6.1,3.9,9.1,31.3,75.2,47.9,158.6,47.9,241s-19.1,176.3-55.3,257h0Z" fill="none" fill-rule="evenodd" stroke="rgba(255,255,255,.38)" stroke-width="3"/></g>
</svg>