<svg xmlns="http://www.w3.org/2000/svg" viewBox="0 0 1024 768" role="img" aria-label="Accurate nashville track layout">
  <defs>
    <linearGradient id="track" x1="0" y1="0" x2="0" y2="1">
      <stop offset="0" stop-color="#fff1a8"/>
      <stop offset=".46" stop-color="#626873"/>
      <stop offset="1" stop-color="#b56b22"/>
    </linearGradient>
    <filter id="glow" x="-30%" y="-30%" width="160%" height="170%">
      <feGaussianBlur stdDeviation="12" result="blur"/>
      <feColorMatrix in="blur" type="matrix" values="1 0 0 0 0  0 1 0 0 0  0 0 1 0 0  0 0 0 .55 0"/>
    </filter>
  </defs>
  <g opacity=".42" filter="url(#glow)">
    <path d="m 512,134.5 c -74.951,0 -156.25,31.5 -217.5,53 -71.233,25.004 -234,67 -234,214 0,139 127,193 226,193 13,0 448.993,-4 466,-4 103,0 210.619,-78 210.619,-192.803 C 963.119,276.5 867.5,235.5 746.5,191.5 640.025,152.782 577.5,134.5 512,134.5 z" transform="translate(0 18)" fill="none" stroke="#020307" stroke-width="76" stroke-linecap="round" stroke-linejoin="round" opacity=".92"/>
    <path d="m 512,134.5 c -74.951,0 -156.25,31.5 -217.5,53 -71.233,25.004 -234,67 -234,214 0,139 127,193 226,193 13,0 448.993,-4 466,-4 103,0 210.619,-78 210.619,-192.803 C 963.119,276.5 867.5,235.5 746.5,191.5 640.025,152.782 577.5,134.5 512,134.5 z" fill="none" stroke="url(#track)" stroke-width="60" stroke-linecap="round" stroke-linejoin="round"/>
    <path d="m 512,134.5 c -74.951,0 -156.25,31.5 -217.5,53 -71.233,25.004 -234,67 -234,214 0,139 127,193 226,193 13,0 448.993,-4 466,-4 103,0 210.619,-78 210.619,-192.803 C 963.119,276.5 867.5,235.5 746.5,191.5 640.025,152.782 577.5,134.5 512,134.5 z" fill="none" stroke="rgba(255,255,255,.42)" stroke-width="3" stroke-linecap="round" stroke-linejoin="round"/></g>
  <g>
    <path d="m 512,134.5 c -74.951,0 -156.25,31.5 -217.5,53 -71.233,25.004 -234,67 -234,214 0,139 127,193 226,193 13,0 448.993,-4 466,-4 103,0 210.619,-78 210.619,-192.803 C 963.119,276.5 867.5,235.5 746.5,191.5 640.025,152.782 577.5,134.5 512,134.5 z" transform="translate(0 18)" fill="none" stroke="#020307" stroke-width="76" stroke-linecap="round" stroke-linejoin="round" opacity=".92"/>
    <path d="m 512,134.5 c -74.951,0 -156.25,31.5 -217.5,53 -71.233,25.004 -234,67 -234,214 0,139 127,193 226,193 13,0 448.993,-4 466,-4 103,0 210.619,-78 210.619,-192.803 C 963.119,276.5 867.5,235.5 746.5,191.5 640.025,152.782 577.5,134.5 512,134.5 z" fill="none" stroke="url(#track)" stroke-width="60" stroke-linecap="round" stroke-linejoin="round"/>
    <path d="m 512,134.5 c -74.951,0 -156.25,31.5 -217.5,53 -71.233,25.004 -234,67 -234,214 0,139 127,193 226,193 13,0 448.993,-4 466,-4 103,0 210.619,-78 210.619,-192.803 C 963.119,276.5 867.5,235.5 746.5,191.5 640.025,152.782 577.5,134.5 512,134.5 z" fill="none" stroke="rgba(255,255,255,.42)" stroke-width="3" stroke-linecap="round" stroke-linejoin="round"/></g>
</svg>